<svg width="24" height="24" viewBox="0 0 24 24" fill="none" xmlns="http://www.w3.org/2000/svg">
<g clip-path="url(#clip0_3_172)">
<path d="M12 0.75C7.08751 0.75 2.92501 3.9 1.38751 8.25H22.6125C21.075 3.9 16.9125 0.75 12 0.75Z" fill="#BB1F2F"/>
<path d="M12 23.25C16.9125 23.25 21.075 20.1375 22.6125 15.75H1.38751C2.92501 20.1375 7.08751 23.25 12 23.25Z" fill="#3E4347"/>
<path d="M1.3875 8.25C0.975 9.4125 0.75 10.6875 0.75 12C0.75 13.3125 0.975 14.5875 1.3875 15.75H22.6125C23.025 14.5875 23.25 13.3125 23.25 12C23.25 10.6875 23.025 9.4125 22.6125 8.25H1.3875Z" fill="#F9F9F9"/>
<path d="M11.475 9.41249C11.5875 9.33749 11.6625 9.41249 11.7375 9.48749C11.775 9.56249 11.775 9.78749 11.7 10.05C11.6625 10.2 11.55 10.35 11.475 10.4625C11.625 10.4625 11.8125 10.425 12 10.35C12.1875 10.425 12.3375 10.4625 12.525 10.4625C12.45 10.3125 12.375 10.0125 12.4125 9.78749C12.4125 9.44999 12.375 9.33749 12.3 9.26249C12.225 9.18749 12.0375 9.14999 11.925 9.14999C11.85 9.14999 11.85 9.18749 11.85 9.18749C11.7 9.14999 11.5875 9.14999 11.5125 9.18749C11.4375 9.26249 11.4375 9.44999 11.475 9.41249Z" fill="#FEFEFE"/>
<path d="M13.9875 10.5375C13.9125 10.125 13.5 10.2375 13.1625 10.425C13.0125 10.5 12.8625 10.575 12.7125 10.575H12.6C12.4125 10.575 12.1875 10.5375 12 10.4625C11.8125 10.5375 11.5875 10.575 11.4 10.575H11.325C11.1375 10.575 10.9875 10.5 10.8375 10.3875C10.5375 10.2375 10.125 10.125 10.0125 10.5C10.0875 10.4625 10.1625 10.3875 10.2 10.3875L10.05 13.9875L10.125 13.9125L10.275 10.425C10.3125 10.4625 10.4625 10.6125 10.5 10.6125L10.3875 13.65L10.5 13.5375L10.6125 10.65C10.65 10.6875 10.7625 10.7625 10.8 10.8L10.6875 13.3125L10.9875 13.05L11.2875 12.0375C11.025 11.475 11.0625 10.9875 11.0625 10.9875H11.1375C11.325 10.9875 11.7375 10.875 11.925 10.7625C11.9625 10.7625 11.9625 10.725 12 10.725C12 10.7625 12.0375 10.7625 12.075 10.8C12.2625 10.9125 12.675 11.025 12.8625 11.025H12.9375C12.9375 11.025 12.975 11.5125 12.7125 12.075L12.975 13.05L13.275 13.3125L13.1625 10.8375C13.2 10.8 13.275 10.725 13.35 10.6875L13.4625 13.5L13.575 13.6125L13.4625 10.6125C13.5 10.575 13.65 10.4625 13.6875 10.425L13.8375 13.875L13.9125 13.95L13.7625 10.3875C13.8 10.425 13.9125 10.5 13.9875 10.5375Z" fill="#FEFEFE"/>
<path d="M11.6625 11.1375V12.6C11.6625 12.6 11.6625 12.6375 11.7 12.6375C11.7375 12.7125 11.8125 12.75 11.85 12.825L11.9625 12.9375L12.075 12.825L12.2625 12.6375V11.2125C12.15 11.175 12.0375 11.1375 11.9625 11.0625C11.925 11.025 11.8125 11.0625 11.6625 11.1375Z" fill="#FEFEFE"/>
<path d="M13.6125 14.2125C13.6125 14.025 13.425 14.025 13.275 14.0625C13.2375 14.0625 13.2375 14.0625 13.2 14.1L12.975 13.275L14.2125 14.475L14.0625 10.575C14.025 9.97499 13.5375 10.125 13.2 10.35C13.0125 10.4625 12.8625 10.5375 12.675 10.5375C12.4125 10.0875 12.5625 9.48749 12.375 9.33749C12.3 9.26249 12.0375 9.14999 11.85 9.14999C11.7375 9.14999 11.775 9.22499 11.775 9.22499C11.5875 9.18749 11.4375 9.18749 11.3625 9.26249C11.2875 9.29999 11.3625 9.67499 11.4 9.59999C11.5125 9.48749 11.55 9.52499 11.625 9.63749C11.7 9.74999 11.55 10.2 11.3625 10.5375C11.1375 10.5375 10.95 10.4625 10.7625 10.35C10.3875 10.125 9.9 10.0125 9.9 10.575L9.75 14.4375L10.9875 13.275L10.7625 14.0625C10.725 14.0625 10.725 14.0625 10.6875 14.025C10.5375 13.9875 10.35 13.9875 10.35 14.175C10.125 14.1375 10.05 14.475 10.275 14.55C10.275 14.6625 10.275 14.7375 10.425 14.7375C10.7625 14.85 11.3625 14.8875 11.9625 14.8875C12.5625 14.8875 13.1625 14.85 13.5 14.7375C13.65 14.7 13.65 14.625 13.65 14.55C13.95 14.475 13.8375 14.1375 13.6125 14.2125ZM11.7 12.6C11.7 12.5625 11.7 12.5625 11.7 12.6L11.6625 12.5625V11.1375C11.8125 11.1 11.925 11.0625 12 10.9875C12.075 11.0625 12.1875 11.1 12.3 11.1375V12.5625C12.225 12.6375 12.1875 12.7125 12.1125 12.75L12 12.8625L11.8875 12.75C11.8125 12.7125 11.775 12.6375 11.7 12.6ZM11.7 10.0875C11.775 9.82499 11.775 9.59999 11.7375 9.52499C11.6625 9.44999 11.5875 9.37499 11.475 9.44999C11.4375 9.48749 11.4375 9.29999 11.5125 9.26249C11.5875 9.22499 11.7 9.22499 11.85 9.26249C11.85 9.26249 11.85 9.18749 11.925 9.22499C12.0375 9.22499 12.2625 9.29999 12.3 9.33749C12.3375 9.37499 12.4125 9.52499 12.4125 9.86249C12.4125 10.0875 12.45 10.3875 12.525 10.5375C12.375 10.5375 12.1875 10.5 12 10.425C11.8125 10.5 11.6625 10.5375 11.475 10.5375C11.55 10.3875 11.6625 10.2375 11.7 10.0875ZM10.725 13.425L10.8375 10.9125C10.8 10.875 10.725 10.8 10.65 10.7625L10.5 13.6125L10.3875 13.725L10.5 10.6875C10.4625 10.65 10.3125 10.5375 10.275 10.5L10.125 13.9875L10.05 14.0625L10.2 10.4625C10.1625 10.4625 10.05 10.5 10.0125 10.575C10.125 10.2 10.5375 10.3125 10.8375 10.5C10.9875 10.6125 11.175 10.65 11.325 10.6875H11.4C11.5875 10.6875 11.775 10.65 12 10.575C12.225 10.65 12.4125 10.6875 12.6 10.6875H12.7125C12.8625 10.65 13.0125 10.6125 13.1625 10.5375C13.5 10.35 13.9125 10.2375 13.9875 10.65C13.9125 10.6125 13.8 10.5375 13.7625 10.5375L13.9125 14.1L13.8375 14.025L13.6875 10.5C13.65 10.5375 13.5 10.6875 13.4625 10.6875L13.575 13.6875L13.4625 13.575L13.35 10.7625C13.3125 10.8 13.2 10.875 13.1625 10.9125L13.275 13.3875L12.975 13.125L12.7125 12.15C12.975 11.5875 12.9375 11.1 12.9375 11.1H12.8625C12.675 11.1 12.2625 11.025 12.075 10.875C12.0375 10.875 12.0375 10.8375 12 10.8C12 10.8 11.9625 10.8375 11.925 10.8375C11.7375 10.95 11.325 11.0625 11.1375 11.0625H11.0625C11.0625 11.0625 11.025 11.55 11.2875 12.1125L10.9875 13.125L10.725 13.425ZM12 14.175H11.5875L11.85 12.9C11.8875 12.9375 11.925 12.975 12 13.0125C12.0375 12.975 12.1125 12.9375 12.15 12.9L12.45 14.175H12Z" fill="#C09300"/>
</g>
<defs>
<clipPath id="clip0_3_172">
<rect width="24" height="24" fill="white"/>
</clipPath>
</defs>
</svg>
